<?xml version="1.0" ?><svg id="Layer_1" style="enable-background:new 0 0 32 32;" version="1.1" viewBox="0 0 32 32" xml:space="preserve" xmlns="http://www.w3.org/2000/svg" xmlns:xlink="http://www.w3.org/1999/xlink"><g><g><path d="M13,14H3c-0.5522461,0-1-0.4472656-1-1V3c0-0.5527344,0.4477539-1,1-1h10c0.5522461,0,1,0.4472656,1,1v10    C14,13.5527344,13.5522461,14,13,14z M4,12h8V4H4V12z"/></g><g><path d="M29,14H19c-0.5522461,0-1-0.4472656-1-1V3c0-0.5527344,0.4477539-1,1-1h10c0.5522461,0,1,0.4472656,1,1v10    C30,13.5527344,29.5522461,14,29,14z M20,12h8V4h-8V12z"/></g><g><path d="M13,30H3c-0.5522461,0-1-0.4472656-1-1V19c0-0.5527344,0.4477539-1,1-1h10c0.5522461,0,1,0.4472656,1,1v10    C14,29.5527344,13.5522461,30,13,30z M4,28h8v-8H4V28z"/></g><g><path d="M22.1264648,26.8740234L22.1264648,26.8740234c-0.2651367,0-0.5195313-0.1054688-0.7070313-0.2929688    l-3.1264648-3.1269531c-0.390625-0.390625-0.390625-1.0234375,0-1.4140625s1.0234375-0.390625,1.4140625,0l2.4194336,2.4199219    l6.1665039-6.1669922c0.390625-0.390625,1.0234375-0.390625,1.4140625,0s0.390625,1.0234375,0,1.4140625l-6.8735352,6.8740234    C22.6459961,26.7685547,22.3916016,26.8740234,22.1264648,26.8740234z"/></g></g></svg>